<svg class="generator__canvas" viewBox="0 0 200 200" xmlns="http://www.w3.org/2000/svg" version="1.1" xmlns:xlink="http://www.w3.org/1999/xlink" xmlns:svgjs="http://svgjs.dev/svgjs"><circle r="10" cx="10" cy="10" fill="#1a1a1a" transform="matrix(0.41419804632182217,0,0,0.41419804632182217,5.858019536781779,5.858019536781779)"></circle><circle r="10" cx="10" cy="30" fill="#1a1a1a" transform="matrix(0.4635708165177834,0,0,0.4635708165177834,5.364291834822166,16.092875504466498)"></circle><circle r="10" cx="10" cy="50" fill="#1a1a1a" transform="matrix(0.5084369155079598,0,0,0.5084369155079598,4.915630844920402,24.57815422460201)"></circle><circle r="10" cx="10" cy="70" fill="#1a1a1a" transform="matrix(0.5448657878346124,0,0,0.5448657878346124,4.551342121653876,31.859394851577136)"></circle><circle r="10" cx="10" cy="90" fill="#1a1a1a" transform="matrix(0.5698975432901275,0,0,0.5698975432901275,4.301024567098724,38.709221103888524)"></circle><circle r="10" cx="10" cy="110" fill="#1a1a1a" transform="matrix(0.5818691473416098,0,0,0.5818691473416098,4.181308526583902,45.994393792422926)"></circle><circle r="10" cx="10" cy="130" fill="#1a1a1a" transform="matrix(0.5805824016820131,0,0,0.5805824016820131,4.194175983179869,54.52428778133829)"></circle><circle r="10" cx="10" cy="150" fill="#1a1a1a" transform="matrix(0.567255096571316,0,0,0.567255096571316,4.32744903428684,64.91173551430259)"></circle><circle r="10" cx="10" cy="170" fill="#1a1a1a" transform="matrix(0.5441902806956462,0,0,0.5441902806956462,4.558097193043538,77.48765228174014)"></circle><circle r="10" cx="10" cy="190" fill="#1a1a1a" transform="matrix(0.5140913504260503,0,0,0.5140913504260503,4.859086495739497,92.32264341905045)"></circle><circle r="10" cx="30" cy="10" fill="#1a1a1a" transform="matrix(0.395550983549026,0,0,0.395550983549026,18.13347049352922,6.04449016450974)"></circle><circle r="10" cx="30" cy="30" fill="#1a1a1a" transform="matrix(0.44252107401840307,0,0,0.44252107401840307,16.72436777944791,16.72436777944791)"></circle><circle r="10" cx="30" cy="50" fill="#1a1a1a" transform="matrix(0.4855841788518729,0,0,0.4855841788518729,15.432474634443814,25.720791057406355)"></circle><circle r="10" cx="30" cy="70" fill="#1a1a1a" transform="matrix(0.5209904182773888,0,0,0.5209904182773888,14.370287451678337,33.53067072058278)"></circle><circle r="10" cx="30" cy="90" fill="#1a1a1a" transform="matrix(0.5459015054926233,0,0,0.5459015054926233,13.6229548352213,40.86886450566391)"></circle><circle r="10" cx="30" cy="110" fill="#1a1a1a" transform="matrix(0.5587107906883264,0,0,0.5587107906883264,13.238676279350209,48.541813024284096)"></circle><circle r="10" cx="30" cy="130" fill="#1a1a1a" transform="matrix(0.5592115082167897,0,0,0.5592115082167897,13.223654753496309,57.30250393181734)"></circle><circle r="10" cx="30" cy="150" fill="#1a1a1a" transform="matrix(0.548554198902027,0,0,0.548554198902027,13.543374032939191,67.71687016469596)"></circle><circle r="10" cx="30" cy="170" fill="#1a1a1a" transform="matrix(0.5289279130680759,0,0,0.5289279130680759,14.132162607957724,80.0822547784271)"></circle><circle r="10" cx="30" cy="190" fill="#1a1a1a" transform="matrix(0.5028924002203761,0,0,0.5028924002203761,14.913227993388718,94.45044395812855)"></circle><circle r="10" cx="50" cy="10" fill="#1a1a1a" transform="matrix(0.3765445937775846,0,0,0.3765445937775846,31.17277031112077,6.234554062224154)"></circle><circle r="10" cx="50" cy="30" fill="#1a1a1a" transform="matrix(0.41974881141313086,0,0,0.41974881141313086,29.012559429343458,17.407535657606076)"></circle><circle r="10" cx="50" cy="50" fill="#1a1a1a" transform="matrix(0.4597326563254791,0,0,0.4597326563254791,27.013367183726047,27.013367183726047)"></circle><circle r="10" cx="50" cy="70" fill="#1a1a1a" transform="matrix(0.49301272507628635,0,0,0.49301272507628635,25.34936374618568,35.48910924465996)"></circle><circle r="10" cx="50" cy="90" fill="#1a1a1a" transform="matrix(0.5169461395815707,0,0,0.5169461395815707,24.15269302092147,43.47484743765864)"></circle><circle r="10" cx="50" cy="110" fill="#1a1a1a" transform="matrix(0.5300399635930563,0,0,0.5300399635930563,23.498001820347188,51.69560400476381)"></circle><circle r="10" cx="50" cy="130" fill="#1a1a1a" transform="matrix(0.5321142949917093,0,0,0.5321142949917093,23.394285250414537,60.8251416510778)"></circle><circle r="10" cx="50" cy="150" fill="#1a1a1a" transform="matrix(0.52425945719239,0,0,0.52425945719239,23.787027140380502,71.3610814211415)"></circle><circle r="10" cx="50" cy="170" fill="#1a1a1a" transform="matrix(0.5085214160537388,0,0,0.5085214160537388,24.57392919731306,83.55135927086441)"></circle><circle r="10" cx="50" cy="190" fill="#1a1a1a" transform="matrix(0.48724224718854947,0,0,0.48724224718854947,25.637887640572526,97.4239730341756)"></circle><circle r="10" cx="70" cy="10" fill="#1a1a1a" transform="matrix(0.3569645130097961,0,0,0.3569645130097961,45.01248408931427,6.43035486990204)"></circle><circle r="10" cx="70" cy="30" fill="#1a1a1a" transform="matrix(0.3951741051816189,0,0,0.3951741051816189,42.337812637286675,18.144776844551433)"></circle><circle r="10" cx="70" cy="50" fill="#1a1a1a" transform="matrix(0.43090775546957266,0,0,0.43090775546957266,39.83645711712991,28.454612226521366)"></circle><circle r="10" cx="70" cy="70" fill="#1a1a1a" transform="matrix(0.4610217866682508,0,0,0.4610217866682508,37.728474933222444,37.728474933222444)"></circle><circle r="10" cx="70" cy="90" fill="#1a1a1a" transform="matrix(0.48313452499669607,0,0,0.48313452499669607,36.18058325023127,46.51789275029736)"></circle><circle r="10" cx="70" cy="110" fill="#1a1a1a" transform="matrix(0.4959203429484959,0,0,0.4959203429484959,35.285575993605285,55.44876227566545)"></circle><circle r="10" cx="70" cy="130" fill="#1a1a1a" transform="matrix(0.4992619400619765,0,0,0.4992619400619765,35.051664195661644,65.09594779194306)"></circle><circle r="10" cx="70" cy="150" fill="#1a1a1a" transform="matrix(0.49420059718095594,0,0,0.49420059718095594,35.405958197333085,75.8699104228566)"></circle><circle r="10" cx="70" cy="170" fill="#1a1a1a" transform="matrix(0.4826179123870948,0,0,0.4826179123870948,36.21674613290337,87.95495489419389)"></circle><circle r="10" cx="70" cy="190" fill="#1a1a1a" transform="matrix(0.46657564837476206,0,0,0.46657564837476206,37.339704613766656,101.35062680879521)"></circle><circle r="10" cx="90" cy="10" fill="#1a1a1a" transform="matrix(0.33701378809394367,0,0,0.33701378809394367,59.66875907154507,6.629862119060563)"></circle><circle r="10" cx="90" cy="30" fill="#1a1a1a" transform="matrix(0.3692402942876213,0,0,0.3692402942876213,56.76837351411408,18.92279117137136)"></circle><circle r="10" cx="90" cy="50" fill="#1a1a1a" transform="matrix(0.3997508466175159,0,0,0.3997508466175159,54.02242380442357,30.012457669124203)"></circle><circle r="10" cx="90" cy="70" fill="#1a1a1a" transform="matrix(0.42580176470591696,0,0,0.42580176470591696,51.677841176467474,40.19387647058581)"></circle><circle r="10" cx="90" cy="90" fill="#1a1a1a" transform="matrix(0.44532933577149086,0,0,0.44532933577149086,49.920359780565825,49.920359780565825)"></circle><circle r="10" cx="90" cy="110" fill="#1a1a1a" transform="matrix(0.45722341322580295,0,0,0.45722341322580295,48.84989280967773,59.70542454516168)"></circle><circle r="10" cx="90" cy="130" fill="#1a1a1a" transform="matrix(0.4614629345309877,0,0,0.4614629345309877,48.46833589221111,70.0098185109716)"></circle><circle r="10" cx="90" cy="150" fill="#1a1a1a" transform="matrix(0.45905226712976843,0,0,0.45905226712976843,48.68529595832084,81.14215993053473)"></circle><circle r="10" cx="90" cy="170" fill="#1a1a1a" transform="matrix(0.45169113338500555,0,0,0.45169113338500555,49.3477979953495,93.21250732454905)"></circle><circle r="10" cx="90" cy="190" fill="#1a1a1a" transform="matrix(0.44110559790139703,0,0,0.44110559790139703,50.30049618887427,106.18993639873456)"></circle><circle r="10" cx="110" cy="10" fill="#1a1a1a" transform="matrix(0.31734321043507663,0,0,0.31734321043507663,75.09224685214157,6.826567895649234)"></circle><circle r="10" cx="110" cy="30" fill="#1a1a1a" transform="matrix(0.3429134874701357,0,0,0.3429134874701357,72.27951637828508,19.71259537589593)"></circle><circle r="10" cx="110" cy="50" fill="#1a1a1a" transform="matrix(0.36749612008218385,0,0,0.36749612008218385,69.57542679095977,31.625193995890807)"></circle><circle r="10" cx="110" cy="70" fill="#1a1a1a" transform="matrix(0.3887939331304045,0,0,0.3887939331304045,67.23266735565551,42.78442468087168)"></circle><circle r="10" cx="110" cy="90" fill="#1a1a1a" transform="matrix(0.4051075389488194,0,0,0.4051075389488194,65.43817071562987,53.54032149460625)"></circle><circle r="10" cx="110" cy="110" fill="#1a1a1a" transform="matrix(0.41558303694920895,0,0,0.41558303694920895,64.28586593558703,64.28586593558703)"></circle><circle r="10" cx="110" cy="130" fill="#1a1a1a" transform="matrix(0.4203244628516779,0,0,0.4203244628516779,63.76430908631543,75.35781982928188)"></circle><circle r="10" cx="110" cy="150" fill="#1a1a1a" transform="matrix(0.42030893056402663,0,0,0.42030893056402663,63.76601763795707,86.953660415396)"></circle><circle r="10" cx="110" cy="170" fill="#1a1a1a" transform="matrix(0.41703632137245555,0,0,0.41703632137245555,64.12600464902988,99.10382536668256)"></circle><circle r="10" cx="110" cy="190" fill="#1a1a1a" transform="matrix(0.4118480117303362,0,0,0.4118480117303362,64.69671870966302,111.74887777123612)"></circle><circle r="10" cx="130" cy="10" fill="#1a1a1a" transform="matrix(0.29895658328440855,0,0,0.29895658328440855,91.13564417302689,7.010434167155914)"></circle><circle r="10" cx="130" cy="30" fill="#1a1a1a" transform="matrix(0.3175598115397099,0,0,0.3175598115397099,88.71722449983771,20.473205653808705)"></circle><circle r="10" cx="130" cy="50" fill="#1a1a1a" transform="matrix(0.3358268903896634,0,0,0.3358268903896634,86.34250424934376,33.208655480516825)"></circle><circle r="10" cx="130" cy="70" fill="#1a1a1a" transform="matrix(0.35193869936287636,0,0,0.35193869936287636,84.24796908282607,45.36429104459866)"></circle><circle r="10" cx="130" cy="90" fill="#1a1a1a" transform="matrix(0.36459440963309864,0,0,0.36459440963309864,82.60272674769718,57.18650313302112)"></circle><circle r="10" cx="130" cy="110" fill="#1a1a1a" transform="matrix(0.37322738618618334,0,0,0.37322738618618334,81.48043979579617,68.94498751951983)"></circle><circle r="10" cx="130" cy="130" fill="#1a1a1a" transform="matrix(0.3780878487989515,0,0,0.3780878487989515,80.84857965613631,80.84857965613631)"></circle><circle r="10" cx="130" cy="150" fill="#1a1a1a" transform="matrix(0.38012913003029036,0,0,0.38012913003029036,80.58321309606225,92.98063049545644)"></circle><circle r="10" cx="130" cy="170" fill="#1a1a1a" transform="matrix(0.38062834958157965,0,0,0.38062834958157965,80.51831455439464,105.29318057113146)"></circle><circle r="10" cx="130" cy="190" fill="#1a1a1a" transform="matrix(0.38051410330624474,0,0,0.38051410330624474,80.53316657018819,117.7023203718135)"></circle><circle r="10" cx="150" cy="10" fill="#1a1a1a" transform="matrix(0.2830469122781686,0,0,0.2830469122781686,107.54296315827472,7.169530877218314)"></circle><circle r="10" cx="150" cy="30" fill="#1a1a1a" transform="matrix(0.2947553550453125,0,0,0.2947553550453125,105.78669674320312,21.157339348640626)"></circle><circle r="10" cx="150" cy="50" fill="#1a1a1a" transform="matrix(0.30666533613506475,0,0,0.30666533613506475,104.0001995797403,34.66673319324676)"></circle><circle r="10" cx="150" cy="70" fill="#1a1a1a" transform="matrix(0.31745070991557045,0,0,0.31745070991557045,102.38239351266444,47.77845030591007)"></circle><circle r="10" cx="150" cy="90" fill="#1a1a1a" transform="matrix(0.3262291282204995,0,0,0.3262291282204995,101.06563076692507,60.639378460155044)"></circle><circle r="10" cx="150" cy="110" fill="#1a1a1a" transform="matrix(0.33273974335073836,0,0,0.33273974335073836,100.08903849738925,73.39862823141878)"></circle><circle r="10" cx="150" cy="130" fill="#1a1a1a" transform="matrix(0.337388887682315,0,0,0.337388887682315,99.39166684765274,86.13944460129905)"></circle><circle r="10" cx="150" cy="150" fill="#1a1a1a" transform="matrix(0.34109932422927214,0,0,0.34109932422927214,98.83510136560918,98.83510136560918)"></circle><circle r="10" cx="150" cy="170" fill="#1a1a1a" transform="matrix(0.34489271319099857,0,0,0.34489271319099857,98.26609302135022,111.36823875753024)"></circle><circle r="10" cx="150" cy="190" fill="#1a1a1a" transform="matrix(0.3492938184154162,0,0,0.3492938184154162,97.60592723768758,123.63417450107093)"></circle><circle r="10" cx="170" cy="10" fill="#1a1a1a" transform="matrix(0.2708108184925223,0,0,0.2708108184925223,123.9621608562712,7.291891815074777)"></circle><circle r="10" cx="170" cy="30" fill="#1a1a1a" transform="matrix(0.27607493224216373,0,0,0.27607493224216373,123.06726151883217,21.71775203273509)"></circle><circle r="10" cx="170" cy="50" fill="#1a1a1a" transform="matrix(0.2819406955700122,0,0,0.2819406955700122,122.07008175309792,35.902965221499386)"></circle><circle r="10" cx="170" cy="70" fill="#1a1a1a" transform="matrix(0.28757102522643596,0,0,0.28757102522643596,121.11292571150588,49.87002823414949)"></circle><circle r="10" cx="170" cy="90" fill="#1a1a1a" transform="matrix(0.29250497882126275,0,0,0.29250497882126275,120.27415360038533,63.67455190608635)"></circle><circle r="10" cx="170" cy="110" fill="#1a1a1a" transform="matrix(0.29679029405931656,0,0,0.29679029405931656,119.54565000991619,77.35306765347518)"></circle><circle r="10" cx="170" cy="130" fill="#1a1a1a" transform="matrix(0.3009843607789007,0,0,0.3009843607789007,118.83265866758688,90.87203309874292)"></circle><circle r="10" cx="170" cy="150" fill="#1a1a1a" transform="matrix(0.30595783725954095,0,0,0.30595783725954095,117.98716766587805,104.10632441106885)"></circle><circle r="10" cx="170" cy="170" fill="#1a1a1a" transform="matrix(0.31243041313474995,0,0,0.31243041313474995,116.88682976709251,116.88682976709251)"></circle><circle r="10" cx="170" cy="190" fill="#1a1a1a" transform="matrix(0.32058502039763626,0,0,0.32058502039763626,115.50054653240184,129.0888461244491)"></circle><circle r="10" cx="190" cy="10" fill="#1a1a1a" transform="matrix(0.26328040851550444,0,0,0.26328040851550444,139.97672238205416,7.367195914844956)"></circle><circle r="10" cx="190" cy="30" fill="#1a1a1a" transform="matrix(0.2628975884944599,0,0,0.2628975884944599,140.04945818605262,22.113072345166202)"></circle><circle r="10" cx="190" cy="50" fill="#1a1a1a" transform="matrix(0.26337259520413087,0,0,0.26337259520413087,139.95920691121512,36.83137023979346)"></circle><circle r="10" cx="190" cy="70" fill="#1a1a1a" transform="matrix(0.2643318666634691,0,0,0.2643318666634691,139.7769453339409,51.49676933355717)"></circle><circle r="10" cx="190" cy="90" fill="#1a1a1a" transform="matrix(0.26571854699939396,0,0,0.26571854699939396,139.51347607011513,66.08533077005454)"></circle><circle r="10" cx="190" cy="110" fill="#1a1a1a" transform="matrix(0.26787227485909143,0,0,0.26787227485909143,139.10426777677264,80.53404976549994)"></circle><circle r="10" cx="190" cy="130" fill="#1a1a1a" transform="matrix(0.2714771290166665,0,0,0.2714771290166665,138.41934548683338,94.70797322783335)"></circle><circle r="10" cx="190" cy="150" fill="#1a1a1a" transform="matrix(0.27731042072727674,0,0,0.27731042072727674,137.31102006181743,108.4034368909085)"></circle><circle r="10" cx="190" cy="170" fill="#1a1a1a" transform="matrix(0.28573970771037116,0,0,0.28573970771037116,135.70945553502946,121.4242496892369)"></circle><circle r="10" cx="190" cy="190" fill="#1a1a1a" transform="matrix(0.2967274812346298,0,0,0.2967274812346298,133.62177856542036,133.62177856542036)"></circle></svg>
