<svg version="1.1" xmlns="http://www.w3.org/2000/svg" x="0" y="0" viewBox="0 0 260.2 260.2" xml:space="preserve">
	<style>
		.st1 {
			fill:#fff;
		}

		.fav-bg {
			fill: #3787c2;
		}

		@media (prefers-color-scheme: dark) {
			.st1 {
				fill: #ffe000;
			}

			.fav-bg {
				fill: #1f1a24;
			}
    	}
	</style>

	<path class="fav-bg" d="M248.2 260.2H12c-6.6 0-12-5.4-12-12V12C0 5.4 5.4 0 12 0h236.2c6.6 0 12 5.4 12 12v236.2c0 6.6-5.4 12-12 12z" fill="#4b87bd"/><path class="st1" d="M49.3 224c-4.5-3.3-6.6-8.2-6.6-14.8 0-13.2 11.1-23.4 33.7-30.4L98.6 75.2h29.6L108 170.6c6.6-2.1 11.9-5.3 15.6-9.9 4.1-4.5 7.4-10.7 10.3-19.7h8.6c-3.7 12.3-8.6 21-14.8 26.7-6.2 5.8-13.6 9.5-21.4 11.5L103 194c-2.9 13.2-7.4 22.6-14.4 27.6S74.4 229 66.1 229c-6.9.4-12.3-1.2-16.8-5zm18.5-15.6c2.1-3.3 4.1-7.8 4.9-13.6l1.2-5.8c-13.6 4.9-20.2 10.7-20.2 17.3 0 1.6.4 3.3 2.1 4.5 1.2 1.2 2.9 2.1 4.9 2.1 2.6.5 5-1.2 7.1-4.5zm37.4-149.3c-3.3-3.3-4.5-7-4.5-11.5s1.6-8.2 4.5-11.5c3.3-3.3 7-4.9 11.5-4.9s8.2 1.6 11.5 4.9c3.7 3.3 4.9 7 4.9 11.5s-1.6 8.2-4.9 11.5c-3.3 3.3-7 4.5-11.5 4.5s-8.2-1.2-11.5-4.5z"/><path class="st1" d="M139.4 172.2c-4.9-4.5-7.4-11.1-7.4-19.3 0-4.1.4-7.8 1.6-11.9l22.2-102.8 30.4-4.1-9.9 46.1c3.7-2.5 7-3.7 9.5-4.5s4.9-1.2 7.4-1.2c16 0 24.3 11.9 24.3 35 0 9.5-1.6 19.7-5.3 30.4s-9.9 20.2-18.1 27.6c-8.2 7.8-19.3 11.5-32.9 11.5-9.5.2-16.9-2.2-21.8-6.8zm44.8-20.9c3.7-5.3 6.6-11.9 8.6-19.7 2.1-7.8 3.3-15.6 3.3-22.6 0-5.3-.8-10.3-2.9-14-2.1-3.7-4.5-5.8-8.2-5.8-2.1 0-4.5.4-7 .8s-4.1 1.6-5.3 2.9L162 145.1c-.4 1.6-.8 3.3-.8 4.5 0 6.2 3.7 9.5 11.1 9.5 4.5 0 8.2-2.5 11.9-7.8z"/></svg>
