<?xml version="1.0" encoding="utf-8"?>
<!-- Generator: Adobe Illustrator 22.0.1, SVG Export Plug-In . SVG Version: 6.00 Build 0)  -->
<svg version="1.1" id="Layer_1" xmlns="http://www.w3.org/2000/svg" xmlns:xlink="http://www.w3.org/1999/xlink" x="0px" y="0px"
	 viewBox="0 0 260.2 260.2" style="enable-background:new 0 0 260.2 260.2;" xml:space="preserve">
<style type="text/css">
	.st0{fill:#8017BA;}
	.st1{fill:#FFFFFF;}
</style>
<path class="st0" d="M248.2,260.2H12c-6.6,0-12-5.4-12-12V12C0,5.4,5.4,0,12,0h236.2c6.6,0,12,5.4,12,12v236.2
	C260.2,254.8,254.8,260.2,248.2,260.2z"/>
<path class="st1" d="M49.3,224c-4.5-3.3-6.6-8.2-6.6-14.8c0-13.2,11.1-23.4,33.7-30.4L98.6,75.2h29.6l-20.2,95.4
	c6.6-2.1,11.9-5.3,15.6-9.9c4.1-4.5,7.4-10.7,10.3-19.7h8.6c-3.7,12.3-8.6,21-14.8,26.7c-6.2,5.8-13.6,9.5-21.4,11.5l-3.3,14.8
	c-2.9,13.2-7.4,22.6-14.4,27.6S74.4,229,66.1,229C59.2,229.4,53.8,227.8,49.3,224z M67.8,208.4c2.1-3.3,4.1-7.8,4.9-13.6l1.2-5.8
	c-13.6,4.9-20.2,10.7-20.2,17.3c0,1.6,0.4,3.3,2.1,4.5c1.2,1.2,2.9,2.1,4.9,2.1C63.3,213.4,65.7,211.7,67.8,208.4z M105.2,59.1
	c-3.3-3.3-4.5-7-4.5-11.5s1.6-8.2,4.5-11.5c3.3-3.3,7-4.9,11.5-4.9c4.5,0,8.2,1.6,11.5,4.9c3.7,3.3,4.9,7,4.9,11.5
	s-1.6,8.2-4.9,11.5c-3.3,3.3-7,4.5-11.5,4.5C112.2,63.6,108.5,62.4,105.2,59.1z"/>
<path class="st1" d="M139.4,172.2c-4.9-4.5-7.4-11.1-7.4-19.3c0-4.1,0.4-7.8,1.6-11.9l22.2-102.8l30.4-4.1l-9.9,46.1
	c3.7-2.5,7-3.7,9.5-4.5c2.5-0.8,4.9-1.2,7.4-1.2c16,0,24.3,11.9,24.3,35c0,9.5-1.6,19.7-5.3,30.4s-9.9,20.2-18.1,27.6
	c-8.2,7.8-19.3,11.5-32.9,11.5C151.7,179.2,144.3,176.8,139.4,172.2z M184.2,151.3c3.7-5.3,6.6-11.9,8.6-19.7
	c2.1-7.8,3.3-15.6,3.3-22.6c0-5.3-0.8-10.3-2.9-14c-2.1-3.7-4.5-5.8-8.2-5.8c-2.1,0-4.5,0.4-7,0.8c-2.5,0.4-4.1,1.6-5.3,2.9
	L162,145.1c-0.4,1.6-0.8,3.3-0.8,4.5c0,6.2,3.7,9.5,11.1,9.5C176.8,159.1,180.5,156.6,184.2,151.3z"/>
</svg>
