<?xml version="1.0" standalone="no"?>
<!DOCTYPE svg PUBLIC "-//W3C//DTD SVG 20010904//EN"
 "http://www.w3.org/TR/2001/REC-SVG-20010904/DTD/svg10.dtd">
<svg version="1.0" xmlns="http://www.w3.org/2000/svg"
 width="700.000000pt" height="700.000000pt" viewBox="0 0 700.000000 700.000000"
 preserveAspectRatio="xMidYMid meet">
<metadata>
Created by potrace 1.11, written by Peter Selinger 2001-2013
</metadata>
<g transform="translate(0.000000,700.000000) scale(0.100000,-0.100000)"
fill="#000000" stroke="none">
<path d="M235 6986 c-95 -30 -161 -87 -204 -176 l-26 -55 0 -3255 0 -3255 24
-52 c29 -66 111 -143 176 -169 49 -19 115 -19 3295 -19 3180 0 3246 0 3295 19
65 26 147 103 176 169 l24 52 0 3255 0 3255 -26 55 c-34 71 -90 126 -159 159
l-55 26 -3240 2 c-2593 1 -3248 -1 -3280 -11z m3080 -865 c91 -42 193 -141
231 -224 26 -56 29 -72 29 -173 0 -107 -1 -112 -38 -186 -84 -170 -238 -258
-432 -245 -123 8 -186 36 -271 121 -83 83 -113 148 -121 266 -10 144 31 256
129 354 98 96 181 128 320 122 71 -3 98 -9 153 -35z m1691 -58 c-9 -31 -256
-1186 -256 -1198 0 -7 42 9 94 35 131 66 236 92 361 93 370 0 586 -248 635
-728 17 -157 7 -421 -20 -585 -79 -475 -255 -844 -537 -1126 -115 -116 -199
-177 -328 -240 -186 -90 -359 -126 -615 -126 -295 0 -459 53 -606 198 -58 57
-129 175 -147 243 -5 22 -9 20 -55 -35 -145 -175 -378 -327 -599 -393 -58 -17
-74 -26 -78 -44 -3 -12 -29 -130 -59 -262 -82 -362 -139 -522 -242 -676 -120
-178 -356 -321 -599 -364 -127 -22 -303 -20 -400 5 -132 34 -272 128 -332 223
-65 103 -91 286 -59 421 64 272 332 494 788 651 l103 36 279 1302 c154 716
288 1344 299 1395 l20 92 399 0 c376 0 399 -1 394 -17 -8 -29 -536 -2530 -536
-2541 0 -21 177 58 267 119 61 41 151 133 210 213 56 75 156 275 183 365 10
36 154 691 319 1455 165 764 303 1391 306 1395 6 6 735 108 788 110 23 1 27
-3 23 -16z"/>
<path d="M4830 4585 c-80 -13 -144 -40 -171 -71 -18 -22 -311 -1433 -317
-1528 -10 -158 78 -250 252 -263 56 -4 88 -1 128 11 210 69 405 413 502 888
36 175 47 283 47 443 0 227 -42 367 -141 466 -70 70 -136 82 -300 54z"/>
<path d="M1854 1862 c-266 -117 -405 -256 -405 -406 0 -70 19 -106 77 -144 50
-34 114 -48 165 -37 69 15 175 164 224 315 30 91 73 320 61 320 -6 0 -61 -22
-122 -48z"/>
</g>
</svg>
