<?xml version="1.0" standalone="no"?>
<!DOCTYPE svg PUBLIC "-//W3C//DTD SVG 20010904//EN"
 "http://www.w3.org/TR/2001/REC-SVG-20010904/DTD/svg10.dtd">
<svg version="1.0" xmlns="http://www.w3.org/2000/svg"
 width="260.000000pt" height="260.000000pt" viewBox="0 0 260.000000 260.000000"
 preserveAspectRatio="xMidYMid meet">
<metadata>
Created by potrace 1.11, written by Peter Selinger 2001-2013
</metadata>
<g transform="translate(0.000000,260.000000) scale(0.100000,-0.100000)"
fill="#000000" stroke="none">
<path d="M1035 2561 c-70 -32 -114 -97 -119 -175 -5 -65 9 -109 46 -152 41
-46 80 -65 141 -69 161 -10 274 147 208 290 -47 104 -174 153 -276 106z"/>
<path d="M1900 2529 c-25 -5 -65 -11 -90 -14 -101 -10 -181 -23 -187 -29 -6
-5 -26 -92 -73 -316 -22 -102 -42 -194 -45 -205 -2 -11 -43 -199 -90 -418 -84
-391 -102 -462 -133 -522 -45 -88 -124 -167 -207 -206 -33 -15 -61 -26 -64
-24 -2 2 2 26 8 52 6 26 14 59 17 73 3 14 7 34 9 45 3 11 7 29 9 40 2 11 15
74 29 140 14 66 28 131 30 145 3 14 12 54 20 90 8 36 18 82 21 103 3 21 13 66
21 100 8 34 31 141 50 237 20 96 38 180 39 185 3 8 -309 13 -370 6 -7 0 -15
-18 -18 -38 -4 -21 -20 -99 -36 -173 -16 -74 -75 -349 -130 -610 -56 -261
-103 -482 -106 -491 -2 -9 -23 -22 -46 -29 -24 -6 -72 -26 -108 -43 -177 -82
-266 -182 -277 -309 -8 -82 12 -143 61 -193 67 -67 104 -79 231 -79 99 -1 117
2 180 28 125 52 179 102 235 221 33 70 73 213 96 338 5 29 13 41 33 49 118 47
198 95 257 153 l63 63 15 -39 c24 -59 93 -123 162 -149 49 -19 78 -23 174 -23
204 1 333 49 453 171 116 116 192 251 235 417 31 119 34 138 38 280 5 183 -27
310 -98 386 -89 95 -240 110 -380 37 -36 -18 -38 -18 -38 -1 0 10 4 34 10 53
5 19 11 46 13 60 7 37 87 412 93 433 4 14 -1 17 -28 16 -18 -1 -53 -5 -78 -10z
m155 -715 c48 -31 82 -135 80 -239 -8 -276 -129 -579 -251 -625 -72 -28 -168
4 -188 63 -11 30 -7 57 40 287 8 41 33 163 55 270 22 107 42 202 45 211 6 22
41 39 99 48 60 9 89 5 120 -15z m-1491 -1291 c-44 -203 -86 -273 -163 -273
-32 0 -44 6 -66 31 -59 71 4 167 160 240 75 35 77 35 69 2z"/>
</g>
</svg>
