<svg xmlns="http://www.w3.org/2000/svg" viewBox="0 0 86 86"><path xmlns="http://www.w3.org/2000/svg" d="M68.3 77.1c-9.4 0-17.1-7.7-17.1-17.1 0-9.4 7.7-17.1 17.1-17.1s17 7.7 17 17.1c0 9.4-7.6 17.1-17 17.1zm0-31.4C60.4 45.7 54 52.1 54 60s6.4 14.2 14.2 14.2S82.5 67.8 82.5 60s-6.4-14.3-14.2-14.3zm7.1 15.7c-.8 0-1.4-.6-1.4-1.4 0-3.1-2.5-5.7-5.7-5.7-.8 0-1.4-.6-1.4-1.4s.6-1.4 1.4-1.4c4.7 0 8.5 3.8 8.5 8.5 0 .8-.6 1.4-1.4 1.4zM66.8 40H55.3c-1.1 0-2.2-.3-3.2-1l-6.5-4.3-5.2 5.3 5.5 5.5c1.6 1.6 2.3 3.8 2 6l-2.1 15.9a4.5 4.5 0 0 1-4.4 3.9c-2.5 0-4.5-2-4.5-4.5V52l-9.4-9.4a5.8 5.8 0 0 1 0-8.1L37.9 24c1.6-1.6 3.8-2.5 6-2.5 2.3 0 4.4.9 6 2.5l7.4 7.4h9.4c2.4 0 4.3 1.9 4.3 4.3.1 2.4-1.8 4.3-4.2 4.3zm0-5.7h-9.4c-.7 0-1.5-.3-2-.8L48 26.1a5.6 5.6 0 0 0-4-1.7c-1.5 0-2.9.6-4 1.7L29.6 36.6a2.84 2.84 0 0 0 0 4L39 50c.5.5.8 1.3.8 2v14.9c0 .9.7 1.6 1.6 1.6.8 0 1.5-.6 1.6-1.4l2.1-15.9c.2-1.3-.3-2.7-1.2-3.6l-5.5-5.5a2.84 2.84 0 0 1 0-4l6.1-6.1c.5-.5 1.2-.6 1.8-.2l7.5 5c.5.3 1 .5 1.6.5h11.5c.8 0 1.4-.6 1.4-1.4 0-.9-.7-1.6-1.5-1.6zm-9.9-8.5a8.5 8.5 0 1 1-.01-16.99 8.5 8.5 0 0 1 .01 16.99zm0-14.2c-3.1 0-5.7 2.6-5.7 5.7s2.6 5.7 5.7 5.7 5.7-2.6 5.7-5.7-2.6-5.7-5.7-5.7zM34.1 60c0 9.4-7.7 17.1-17.1 17.1S0 69.4 0 60c0-9.4 7.7-17.1 17.1-17.1s17 7.7 17 17.1zm-17-14.3C9.2 45.7 2.9 52.1 2.9 60a14.19 14.19 0 1 0 28.4 0c0-7.8-6.4-14.3-14.2-14.3zm0 22.8c-.8 0-1.4-.6-1.4-1.4 0-.8.6-1.4 1.4-1.4 3.1 0 5.7-2.6 5.7-5.7 0-.8.6-1.4 1.4-1.4s1.4.6 1.4 1.4c0 4.7-3.8 8.5-8.5 8.5z" fill="#ff585d"/></svg>
