<svg xmlns="http://www.w3.org/2000/svg" viewBox="0 0 93 107" role="img" focusable="false"><title>Run</title><path xmlns="http://www.w3.org/2000/svg" d="M82.3 55.1L70 45.3C65.8 42 62.1 38 59.1 33.7l-6.5-9.3a5.75 5.75 0 0 0-7.3-1.8l-4 2a9.82 9.82 0 0 1-9.8-.4c-3-1.8-4.8-5-4.7-8.5v-1.5c0-1.4-.8-2.7-2.1-3.3-2.9-1.3-6.2.1-7.5 2.9L6.6 38.1l-2.8 1.8c-1 .7-1.8 1.6-2.3 2.7-1.5 3.6.1 7.8 3.7 9.4l44.3 19.3c9 3.9 18.2 5 25.9 3.1 3.8-.9 6.9-3.7 8.5-7.3l.8-1.8c1.6-3.6.6-7.8-2.4-10.2zM23.6 13.4c.3.1.4.4.4.7v1.5c0 4.5 2.2 8.6 6.1 11 3.8 2.4 8.5 2.5 12.5.5l4-2c1.3-.6 2.8-.3 3.6.9l2.2 3.1-9.9 5.6c-.7.4-.9 1.3-.5 1.9.2.3.4.5.7.6.4.2.9.2 1.3-.1l10-5.7 2.7 3.9c.2.3.4.5.6.8l-8.1 4.6c-.7.4-.9 1.3-.5 1.9.2.3.4.5.7.6.4.2.9.2 1.3-.1l8.4-4.8c1.2 1.5 2.5 3 3.9 4.4l-7 4c-.7.4-.9 1.3-.5 1.9.2.3.4.5.7.6.4.2.9.2 1.3-.1l7.8-4.4c1 .9 2.1 1.8 3.1 2.7l12.3 9.8c2 1.6 2.7 4.4 1.7 6.7l-.2.6c-12.5 6.9-34.3-6.2-36.8-7.7-16.3-10-27.7-15.2-35.5-18.6l10.2-23.5c.4-1.3 2-1.9 3.5-1.3zm51.2 58.2c-7.1 1.8-15.6.7-24.1-2.9L6.4 49.3c-2.2-.9-3.1-3.5-2.2-5.6.3-.6.7-1.1 1.2-1.4l2.5-1.6c7.7 3.4 19.3 8.5 35.8 18.7 3.8 2.4 7.3 4.2 10.6 5.6 12.3 5.4 20.8 4.8 25.4 3.5-1.3 1.5-3 2.6-4.9 3.1z"/></svg>
