<svg xmlns="http://www.w3.org/2000/svg" viewBox="0 0 60 60" role="img" focusable="false"><title>Walk/hike</title><defs><style>.cls-1{fill:none !important;stroke:var(--color-text);stroke-linecap:round;stroke-linejoin:round;stroke-width:2px}</style></defs><path class="cls-1" d="M35.16 29.99l-2.06 1.63M28.65 17.78l-3.57 1.4M29.98 21.33l-3.07 1.51M31.46 24.52l-2.73 1.62M33.14 27.42l-2.59 1.64M11.6 40.41H21a7.24 7.24 0 0 1 4.59 1.65 7.24 7.24 0 0 0 4.59 1.65H43a13.27 13.27 0 0 0 8.31-2.93l2.19 2.93-2.19 1.46-.21.15a13.27 13.27 0 0 1-7.63 2.41H30.23a7.24 7.24 0 0 1-4.59-1.65A7.24 7.24 0 0 0 21 44.43h-9.4v-4s.73-19-.73-22.69a42.55 42.55 0 0 0-4-7.32"/><path class="cls-1" d="M10.87 17.72l16.77-3.29s4 16.1 11.66 18.3 12.76-.73 12 7.68"/><path class="cls-1" d="M40.6 33.05l-1.3 4.06a27.53 27.53 0 0 0-13.92-.95M11.6 44.06v3.67h10.57"/></svg>
