<svg xmlns="http://www.w3.org/2000/svg" viewBox="0 0 76 76"><path xmlns="http://www.w3.org/2000/svg" d="M61.8 37.9c-.3.3-.6.4-1 .4s-.7-.1-1-.4c-.5-.5-13.3-13.1-13.3-22.4 0-7.9 6.4-14.2 14.3-14.2S75 7.6 75 15.5c0 9.2-12.7 21.8-13.2 22.4zm-1-33.8c-6.3 0-11.4 5.1-11.4 11.4 0 6.7 8.5 16.2 11.4 19.3 2.9-3.1 11.4-12.6 11.4-19.3 0-6.3-5.1-11.4-11.4-11.4zm-5.7 11.4c0-3.1 2.6-5.7 5.7-5.7s5.7 2.6 5.7 5.7-2.6 5.7-5.7 5.7a5.7 5.7 0 0 1-5.7-5.7zm8.5 0c0-1.6-1.3-2.8-2.9-2.8-1.6 0-2.9 1.3-2.9 2.8s1.3 2.8 2.9 2.8c1.6 0 2.9-1.2 2.9-2.8zm-10 21.3c0 .8-.6 1.4-1.4 1.4-3.1 0-5.7 2.6-5.7 5.7s2.6 5.7 5.7 5.7h10c7.1 0 12.8 5.8 12.8 12.8s-5.8 12.8-12.8 12.8H20.9c-.2 0-.4 0-.5-.1-.1 0-.1-.1-.2-.1s-.2-.1-.2-.1C19.2 74.2 1 57.1 1 44c0-11 9-19.9 20-19.9S41 33 41 44c0 10.4-11.3 23.2-16.5 28.5h37.9c5.5 0 10-4.5 10-10s-4.5-10-10-10h-10c-4.7 0-8.6-3.8-8.6-8.5s3.8-8.5 8.6-8.5c.6-.1 1.2.6 1.2 1.3zM38 44a17.16 17.16 0 0 0-34.3 0c0 10.3 13.3 24.2 17.1 27.9C24.6 68.2 38 54.2 38 44zm-25.7 0c0-4.7 3.8-8.5 8.6-8.5s8.6 3.8 8.6 8.5-3.8 8.5-8.6 8.5-8.6-3.8-8.6-8.5zm14.3 0c0-3.1-2.6-5.7-5.7-5.7s-5.7 2.6-5.7 5.7 2.6 5.7 5.7 5.7 5.7-2.6 5.7-5.7z" fill="#ff585d"/></svg>
