<svg xmlns="http://www.w3.org/2000/svg" viewBox="0 0 70 70" role="img" focusable="false"><title>Weight Training</title><path xmlns="http://www.w3.org/2000/svg" fill-rule="evenodd" fill="#FF585D" d="M56.4 30.9c0 2.4.9 3.7 2 5.4 1.5 2.3 3.4 5.2 3.4 11.3 0 14.4-14 22.2-27.1 22.2S7.6 62 7.6 47.6c0-6.1 1.9-9 3.4-11.3 1.1-1.7 2-3 2-5.4 0-2.5-1.2-5.2-2.3-7.9-1.1-2.7-2.3-5.4-2.3-8C8.4 5 22 .5 34.7.5 47.3.5 60.9 5 60.9 15c0 2.6-1.2 5.4-2.3 8-1.1 2.6-2.2 5.4-2.2 7.9zM34.7 3.3C23 3.3 11.3 7.3 11.3 15c0 2 1 4.4 2.1 6.9 1.2 2.9 2.5 5.9 2.5 9 0 3.2-1.3 5.1-2.5 7-1.4 2.2-2.9 4.5-2.9 9.7 0 12.7 12.2 19.3 24.2 19.3s24.2-6.6 24.2-19.3c0-5.3-1.5-7.5-2.9-9.7-1.2-1.8-2.5-3.7-2.5-7 0-3.1 1.3-6.1 2.5-9 1.1-2.5 2.1-4.9 2.1-6.9 0-7.7-11.8-11.7-23.4-11.7zM50.4 22c-.5 1.4-1.9 3-5.2 3-1.3 0-2.5-.3-3.8-.7-1.7-.5-3.7-1.1-6.7-1.1h-.5c-3 0-4.8.6-6.3 1.1-1.2.4-2.3.7-3.6.7-3.4 0-4.7-1.6-5.2-2.9-.1-.3-.2-.5-.3-.8-.5-1.4-1.1-2.8-1.1-5.2 0-3.8 7-8.1 17.1-8.1 10.1 0 17.1 4.2 17.1 8.1 0 2.4-.5 3.7-1.1 5.2-.2.2-.3.4-.4.7zM34.7 10.8c-9.3 0-14.2 3.9-14.2 5.2 0 1.9.4 2.8.9 4.2.1.3.2.5.3.8.1.2.4 1.1 2.6 1.1.9 0 1.7-.3 2.7-.6 1.7-.5 3.8-1.2 7.2-1.2h.5c3.4 0 5.7.7 7.5 1.2 1.2.3 2.1.6 3 .6 2.1 0 2.5-.8 2.6-1.1.1-.2.2-.5.3-.8.5-1.3.9-2.3.9-4.2-.1-1.3-5-5.2-14.3-5.2zM27 45.9l4.6-5.4h2.8l-4.5 5.2 4.8 6.7h-2.8l-3.5-4.9L27 49v3.4h-2.3V40.5H27v5.4zM38.5 41c.9-.5 2-.8 3.3-.8.7 0 1.4.1 1.9.2.6.1 1.1.4 1.7.6v2.1h-.1c-.4-.2-.9-.4-1.5-.6-.6-.2-1.2-.2-1.9-.2-2.6 0-3.9 1.4-3.9 4.1 0 1.3.3 2.3.9 3 .6.7 1.5 1 2.7 1 1 0 1.7-.2 2.1-.6V48h-2.3v-1.9h4.5V51c-.9.6-1.7.9-2.4 1.2-.7.2-1.4.3-2.1.3-1.3 0-2.3-.3-3.2-.8-.9-.5-1.6-1.2-2-2.1-.5-.9-.7-2-.7-3.2 0-1.3.2-2.4.7-3.3.7-.8 1.4-1.6 2.3-2.1z"/></svg>
