<svg xmlns="http://www.w3.org/2000/svg" viewBox="0 0 167 96"><path xmlns="http://www.w3.org/2000/svg" fill-rule="evenodd" fill="#FF585D" d="M75.88 96c-3.27 0-5.9-3.7-6.39-4.45l-.1-.16-.08-.17a4048.7 4048.7 0 0 0-12.84-29.93c-.2-.4-.6-1.22-2.85-1.22a2.6 2.6 0 0 0-2.23 1.16c-.68 1.98-5.88 17.1-7 19.93-1.38 3.46-5.23 3.92-7.37 3.64-.79-.05-3.52-.47-6.1-3.7-2.04-2.58-3.25-2.77-4.84-2.77H2.05A2.06 2.06 0 0 1 0 76.27c0-1.14.92-2.06 2.05-2.06h24.03c2.77 0 5.2.73 8.04 4.3 1.5 1.9 2.88 2.15 3.12 2.18l.18-.02.08.04c.01 0 2.53.29 3.08-1.08 1.14-2.87 6.94-19.76 7-19.93l.1-.25a6.69 6.69 0 0 1 5.94-3.5c3.17 0 5.37 1.18 6.52 3.5C60.72 60.62 71.4 85.68 73 89.4c.83 1.18 2.22 2.48 2.88 2.48 1.48 0 2.68-.68 3.57-2.03.64-.97 2.76-6.47 4.44-11.26.43-1.46 2.26-3.8 6.64-3.8h5.28c.12 0 3.37-.08 4.56-2.87 1.35-3.18 14.72-45.95 21.6-68.12l.13-.3c.65-1.3 2.75-3.5 6.52-3.5 3.78 0 5.88 2.2 6.52 3.5l.08.17 31.64 81.27a2.06 2.06 0 0 1-1.16 2.67 2.05 2.05 0 0 1-2.66-1.17L131.45 5.3c-.14-.2-.9-1.18-2.83-1.18-1.8 0-2.57.84-2.8 1.16-1.56 5-19.94 64.19-21.68 68.27-2.27 5.3-8.09 5.37-8.33 5.37h-5.28c-1.99 0-2.57.66-2.7.87l-.02.18-.03-.07c-.6 1.71-3.67 10.35-4.92 12.24A8.2 8.2 0 0 1 75.88 96z"/></svg>
